<?xml version="1.0" encoding="UTF-8"?>
<svg width="387px" height="203px" viewBox="0 0 387 203" version="1.1" xmlns="http://www.w3.org/2000/svg" xmlns:xlink="http://www.w3.org/1999/xlink">
    <!-- Generator: sketchtool 49.3 (51167) - http://www.bohemiancoding.com/sketch -->
    <title>DE0A6BEE-A7D0-45AB-A8B8-5DF3E1ABDE39</title>
    <desc>Created with sketchtool.</desc>
    <defs></defs>
    <g id="레퍼런스" stroke="none" stroke-width="1" fill="none" fill-rule="evenodd">
        <g id="Desktop-HD-Copy" transform="translate(-502.000000, -406.000000)" fill="#FFC200">
            <g id="Main" transform="translate(480.000000, 0.000000)">
                <g id="번개" transform="translate(22.000000, 406.000000)">
                    <polygon id="Fill-1" points="313.4061 0.0002 233.8011 28.0002 154.1981 0.0002 74.5991 28.0002 0.0001 1.7592 0.0001 18.7202 74.5991 44.9602 154.1981 16.9612 233.8011 44.9602 313.4061 16.9612 387.0001 42.8512 387.0001 25.8892"></polygon>
                    <polygon id="Fill-2" points="233.8011 67.5002 154.1981 39.5002 74.5991 67.5002 0.0001 41.2592 0.0001 58.2192 74.5991 84.4602 154.1981 56.4612 233.8011 84.4602 313.4061 56.4612 387.0001 82.3512 387.0001 65.3892 313.4061 39.5002"></polygon>
                    <polygon id="Fill-3" points="233.8011 107.0003 154.1981 79.0003 74.5991 107.0003 0.0001 80.7593 0.0001 97.7193 74.5991 123.9613 154.1981 95.9613 233.8011 123.9613 313.4061 95.9613 387.0001 121.8503 387.0001 104.8893 313.4061 79.0003"></polygon>
                    <polygon id="Fill-4" points="233.8011 146.5004 154.1981 118.5004 74.5991 146.5004 0.0001 120.2594 0.0001 137.2194 74.5991 163.4604 154.1981 135.4614 233.8011 163.4604 313.4061 135.4614 387.0001 161.3504 387.0001 144.3894 313.4061 118.5004"></polygon>
                    <polygon id="Fill-5" points="233.8011 186.0005 154.1981 157.9995 74.5991 186.0005 0.0001 159.7595 0.0001 176.7195 74.5991 202.9605 154.1981 174.9615 233.8011 202.9605 313.4061 174.9615 387.0001 200.8505 387.0001 183.8895 313.4061 157.9995"></polygon>
                </g>
            </g>
        </g>
    </g>
</svg>