<?xml version="1.0" encoding="UTF-8"?>
<svg width="34px" height="36px" viewBox="0 0 34 36" version="1.1" xmlns="http://www.w3.org/2000/svg" xmlns:xlink="http://www.w3.org/1999/xlink">
    <!-- Generator: sketchtool 49.3 (51167) - http://www.bohemiancoding.com/sketch -->
    <title>B6470FE6-47BA-4ACE-AB8B-533BD590845A</title>
    <desc>Created with sketchtool.</desc>
    <defs></defs>
    <g id="레퍼런스" stroke="none" stroke-width="1" fill="none" fill-rule="evenodd">
        <g id="Desktop-HD" transform="translate(-1007.000000, -1288.000000)" fill="#212121">
            <g id="Main" transform="translate(480.000000, 0.000000)">
                <g id="미세먼지-농도" transform="translate(23.000000, 1110.000000)">
                    <g id="미세먼지-위험" transform="translate(504.000000, 178.000000)">
                        <circle id="Oval-2-Copy-8" cx="7" cy="10" r="2"></circle>
                        <circle id="Oval-2-Copy-9" cx="17" cy="10" r="2"></circle>
                        <circle id="Oval-2-Copy-10" cx="27" cy="10" r="2"></circle>
                        <circle id="Oval-2-Copy-8" cx="7" cy="26" r="2"></circle>
                        <circle id="Oval-2-Copy-9" cx="17" cy="26" r="2"></circle>
                        <circle id="Oval-2-Copy-10" cx="27" cy="26" r="2"></circle>
                        <circle id="Oval-2-Copy-2" cx="2" cy="2" r="2"></circle>
                        <circle id="Oval-2-Copy-3" cx="12" cy="2" r="2"></circle>
                        <circle id="Oval-2-Copy-4" cx="22" cy="2" r="2"></circle>
                        <circle id="Oval-2-Copy-5" cx="32" cy="2" r="2"></circle>
                        <circle id="Oval-2-Copy-2" cx="2" cy="18" r="2"></circle>
                        <circle id="Oval-2-Copy-3" cx="12" cy="18" r="2"></circle>
                        <circle id="Oval-2-Copy-4" cx="22" cy="18" r="2"></circle>
                        <circle id="Oval-2-Copy-5" cx="32" cy="18" r="2"></circle>
                        <circle id="Oval-2-Copy-2" cx="2" cy="34" r="2"></circle>
                        <circle id="Oval-2-Copy-3" cx="12" cy="34" r="2"></circle>
                        <circle id="Oval-2-Copy-4" cx="22" cy="34" r="2"></circle>
                        <circle id="Oval-2-Copy-5" cx="32" cy="34" r="2"></circle>
                    </g>
                </g>
            </g>
        </g>
    </g>
</svg>